# xmcd
#
# Track frame offsets: 
#        150
#        27991
#        63878
#        119127
#        183374
#        214164
#        255286
#        293013
#
# Disc length: 4459 seconds
#
# Revision: 4
# Processed by: cddbd v1.5.2PL0 Copyright (c) Steve Scherf et al.
# Submitted via: ExactAudioCopy v1.0b1
#
DISCID=71116908
DTITLE=Perry Rhodan - Der Unsterbliche -  CD 02
DYEAR=2003
DGENRE=Speech
TTITLE0=Kapitel 3 Teil 2
TTITLE1=Kapitel 4 Teil 1
TTITLE2=Kapitel 4 Teil 2
TTITLE3=Kapitel 4 Teil 3
TTITLE4=Kapitel 4 Teil 4
TTITLE5=Kapitel 4 Teil 5
TTITLE6=Kapitel 5 Teil 1
TTITLE7=Kapitel 5 Teil 2
EXTD=
EXTT0=
EXTT1=
EXTT2=
EXTT3=
EXTT4=
EXTT5=
EXTT6=
EXTT7=
PLAYORDER=
